<?xml version="1.0" encoding="UTF-8"?>
<svg id="Layer_2" data-name="Layer 2" xmlns="http://www.w3.org/2000/svg" viewBox="0 0 85.68 85.68">
  <g id="Weather_Icons" data-name="Weather Icons">
    <g>
      <path d="M77.71,42.84c0,19.26-15.61,34.87-34.87,34.87S7.97,62.1,7.97,42.84,23.58,7.97,42.84,7.97s34.87,15.61,34.87,34.87Z" style="fill: #ffda24;"/>
      <path d="M14.13,10.96l-3.17,3.17c-1.64,1.64-1.64,4.32,0,5.96l3.09,3.08c2.45-3.58,5.55-6.68,9.14-9.13l-3.09-3.08c-1.64-1.64-4.32-1.64-5.96,0Zm57.41,0c-1.64-1.64-4.33-1.64-5.97,0l-3.09,3.09c3.58,2.45,6.68,5.55,9.13,9.14l3.09-3.09c1.64-1.64,1.64-4.33,0-5.97l-3.17-3.17ZM45.08,0h-4.48c-2.32,0-4.22,1.9-4.22,4.22v4.38c2.1-.39,4.25-.62,6.46-.62s4.36,.23,6.46,.62V4.22c0-2.32-1.9-4.22-4.22-4.22ZM4.22,36.38c-2.32,0-4.22,1.9-4.22,4.22v4.48c0,2.32,1.9,4.22,4.22,4.22h4.38c-.39-2.1-.62-4.25-.62-6.46s.23-4.37,.62-6.46H4.22Zm67.41,26.12c-2.45,3.58-5.55,6.68-9.13,9.13l3.09,3.08c1.64,1.64,4.33,1.64,5.97,0l3.17-3.17c1.64-1.64,1.64-4.33,0-5.97l-3.09-3.09Zm9.83-26.12h-4.37c.39,2.1,.62,4.25,.62,6.46s-.23,4.36-.62,6.46h4.37c2.32,0,4.22-1.9,4.22-4.22v-4.48c0-2.32-1.9-4.22-4.22-4.22ZM14.05,62.49l-3.09,3.09c-1.64,1.64-1.64,4.32,0,5.97l3.17,3.17c1.64,1.64,4.33,1.64,5.97,0l3.09-3.08c-3.58-2.45-6.68-5.56-9.14-9.14Zm22.33,14.59v4.38c0,2.32,1.9,4.22,4.22,4.22h4.48c2.32,0,4.22-1.9,4.22-4.22v-4.38c-2.1,.39-4.25,.62-6.46,.62s-4.37-.23-6.46-.62Z" style="fill: #ffda24;"/>
      <path d="M36.38,6.78v1.82c2.1-.39,4.25-.62,6.46-.62s4.36,.23,6.46,.62v-1.82c-2.1-.37-4.25-.6-6.46-.6s-4.36,.23-6.46,.6Zm35.25,16.41l1.29-1.29c-2.48-3.56-5.58-6.65-9.13-9.13l-1.29,1.28c3.58,2.45,6.68,5.55,9.13,9.14ZM6.78,36.38c-.38,2.1-.6,4.25-.6,6.46s.23,4.36,.6,6.46h1.82c-.39-2.1-.62-4.25-.62-6.46s.23-4.37,.62-6.46h-1.82Zm55.72,35.25l1.29,1.28c3.56-2.48,6.65-5.57,9.13-9.13l-1.29-1.29c-2.45,3.58-5.55,6.68-9.13,9.13Zm16.41-35.25h-1.82c.39,2.1,.62,4.25,.62,6.46s-.23,4.36-.62,6.46h1.82c.37-2.1,.6-4.25,.6-6.46s-.23-4.36-.6-6.46Zm-42.53,40.7v1.82c2.1,.37,4.25,.6,6.46,.6s4.36-.23,6.46-.6v-1.82c-2.1,.39-4.25,.62-6.46,.62s-4.37-.23-6.46-.62Zm-22.33-14.59l-1.28,1.29c2.48,3.56,5.58,6.66,9.13,9.14l1.29-1.28c-3.58-2.45-6.68-5.56-9.14-9.14Zm-1.28-40.6l1.29,1.28c2.45-3.58,5.55-6.68,9.14-9.13l-1.29-1.28c-3.56,2.48-6.65,5.58-9.13,9.13Z" style="fill: #ffa300;"/>
      <path d="M65.58,10.96l-3.09,3.09c-3.9-2.67-8.38-4.55-13.2-5.45V4.22c0-2.32-1.9-4.22-4.22-4.22h-4.48c-2.32,0-4.22,1.9-4.22,4.22v4.38c-4.82,.9-9.29,2.79-13.19,5.45l-3.09-3.08c-1.64-1.64-4.32-1.64-5.96,0l-3.17,3.17c-1.64,1.64-1.64,4.32,0,5.96l3.09,3.08c-2.67,3.9-4.55,8.38-5.45,13.2H4.22c-2.32,0-4.22,1.9-4.22,4.22v4.48c0,2.32,1.9,4.22,4.22,4.22h4.38c.9,4.82,2.79,9.29,5.45,13.19l-3.09,3.09c-1.64,1.64-1.64,4.32,0,5.97l1.83,1.83L73.38,12.79l-1.83-1.83c-1.64-1.64-4.33-1.64-5.97,0Z" style="fill: #fff; opacity: .15;"/>
    </g>
  </g>
</svg>