<?xml version="1.0" encoding="UTF-8"?>
<svg id="Layer_2" data-name="Layer 2" xmlns="http://www.w3.org/2000/svg" viewBox="0 0 85.27 85.27">
  <g id="Weather_Icons" data-name="Weather Icons">
    <g>
      <path d="M85.27,42.63c0,23.55-19.09,42.63-42.63,42.63S0,66.18,0,42.63,19.09,0,42.63,0s42.63,19.09,42.63,42.63Z" style="fill: #c6c5a3;"/>
      <path d="M42.63,0c-8.43,0-16.28,2.46-22.89,6.68-4.22,6.61-6.67,14.46-6.67,22.89,0,23.55,19.09,42.63,42.63,42.63,8.43,0,16.28-2.45,22.89-6.67,4.22-6.62,6.67-14.46,6.67-22.89C85.27,19.09,66.18,0,42.63,0Z" style="fill: #d1d1b0;"/>
      <g>
        <path d="M23.13,37.37c0,4.41-3.58,7.99-7.99,7.99s-7.99-3.58-7.99-7.99,3.58-7.99,7.99-7.99,7.99,3.58,7.99,7.99Z" style="fill: #b7b284;"/>
        <path d="M15.14,29.38c-1.58,0-3.05,.46-4.29,1.25-.79,1.24-1.25,2.71-1.25,4.29,0,4.42,3.58,7.99,7.99,7.99,1.58,0,3.05-.46,4.29-1.25,.79-1.24,1.25-2.71,1.25-4.29,0-4.41-3.58-7.99-7.99-7.99Z" style="fill: #c1be99;"/>
      </g>
      <g>
        <path d="M55.78,40.81c0,6.18-5.02,11.2-11.2,11.2s-11.2-5.01-11.2-11.2,5.01-11.2,11.2-11.2,11.2,5.01,11.2,11.2Z" style="fill: #b7b284;"/>
        <path d="M44.57,29.61c-2.21,0-4.28,.65-6.01,1.75-1.11,1.74-1.75,3.8-1.75,6.01,0,6.19,5.02,11.2,11.2,11.2,2.21,0,4.27-.64,6.01-1.75,1.11-1.74,1.75-3.8,1.75-6.01,0-6.19-5.02-11.2-11.2-11.2Z" style="fill: #c1be99;"/>
      </g>
      <g>
        <path d="M29.56,64.75c0,2.58-2.1,4.68-4.68,4.68s-4.68-2.1-4.68-4.68,2.09-4.68,4.68-4.68,4.68,2.1,4.68,4.68Z" style="fill: #b7b284;"/>
        <path d="M24.88,60.07c-.93,0-1.79,.27-2.51,.73-.46,.73-.73,1.59-.73,2.51,0,2.59,2.09,4.68,4.68,4.68,.92,0,1.78-.27,2.51-.73,.46-.73,.73-1.59,.73-2.52,0-2.58-2.1-4.68-4.68-4.68Z" style="fill: #c1be99;"/>
      </g>
      <g>
        <path d="M68.38,18.04c0,3.17-2.57,5.74-5.74,5.74s-5.74-2.57-5.74-5.74,2.57-5.74,5.74-5.74,5.74,2.57,5.74,5.74Z" style="fill: #b7b284;"/>
        <path d="M62.64,12.3c-1.14,0-2.19,.33-3.08,.9-.57,.89-.9,1.95-.9,3.08,0,3.17,2.57,5.74,5.74,5.74,1.14,0,2.19-.33,3.08-.9,.57-.89,.9-1.95,.9-3.08,0-3.17-2.57-5.74-5.74-5.74Z" style="fill: #c1be99;"/>
      </g>
      <g>
        <path d="M34.04,11.44c0,1.81-1.46,3.27-3.27,3.27s-3.27-1.46-3.27-3.27,1.46-3.27,3.27-3.27,3.27,1.46,3.27,3.27Z" style="fill: #b7b284;"/>
        <path d="M30.77,8.17c-.65,0-1.25,.19-1.75,.51-.32,.51-.51,1.11-.51,1.76,0,1.8,1.46,3.27,3.27,3.27,.65,0,1.25-.19,1.76-.51,.32-.51,.51-1.11,.51-1.76,0-1.81-1.46-3.27-3.27-3.27Z" style="fill: #c1be99;"/>
      </g>
      <g>
        <path d="M79.65,47.01c0,3.29-2.67,5.97-5.96,5.97s-5.96-2.67-5.96-5.97,2.67-5.96,5.96-5.96,5.96,2.67,5.96,5.96Z" style="fill: #b7b284;"/>
        <path d="M73.69,41.05c-1.18,0-2.28,.34-3.2,.94-.59,.92-.93,2.02-.93,3.2,0,3.29,2.67,5.96,5.96,5.96,1.18,0,2.28-.34,3.2-.93,.6-.93,.93-2.02,.93-3.21,0-3.29-2.67-5.96-5.96-5.96Z" style="fill: #c1be99;"/>
      </g>
      <g>
        <path d="M60.56,71.47c0,2.84-2.3,5.14-5.14,5.14s-5.14-2.3-5.14-5.14,2.3-5.14,5.14-5.14,5.14,2.3,5.14,5.14Z" style="fill: #b7b284;"/>
        <path d="M55.42,66.34c-1.01,0-1.96,.3-2.76,.81-.51,.8-.81,1.74-.81,2.76,0,2.84,2.3,5.14,5.14,5.14,1.02,0,1.96-.29,2.76-.8,.51-.8,.81-1.75,.81-2.76,0-2.84-2.3-5.14-5.14-5.14Z" style="fill: #c1be99;"/>
      </g>
    </g>
  </g>
</svg>