<?xml version="1.0" encoding="UTF-8"?>
<svg id="Layer_2" data-name="Layer 2" xmlns="http://www.w3.org/2000/svg" viewBox="0 0 89.59 75.93">
  <g id="Weather_Icons" data-name="Weather Icons">
    <g>
      <g>
        <path d="M82.56,37.76c0,16.97-13.76,30.73-30.73,30.73s-30.73-13.76-30.73-30.73S34.87,7.03,51.84,7.03s30.73,13.76,30.73,30.73Z" style="fill: #ffda24;"/>
        <path d="M26.54,9.66l-2.79,2.79c-1.45,1.45-1.45,3.81,0,5.26l2.72,2.72c2.16-3.16,4.89-5.89,8.05-8.05l-2.72-2.72c-1.45-1.45-3.81-1.45-5.26,0Zm50.6,0c-1.45-1.44-3.81-1.44-5.26,0l-2.72,2.72c3.16,2.16,5.89,4.89,8.05,8.05l2.72-2.72c1.45-1.45,1.45-3.81,0-5.26l-2.79-2.8ZM53.81,0h-3.95c-2.05,0-3.72,1.67-3.72,3.72v3.86c1.85-.35,3.75-.55,5.69-.55s3.85,.2,5.69,.55V3.72c0-2.04-1.67-3.72-3.72-3.72ZM17.8,32.06c-2.04,0-3.72,1.67-3.72,3.72v3.95c0,2.04,1.68,3.72,3.72,3.72h3.86c-.35-1.85-.55-3.75-.55-5.69s.2-3.85,.55-5.69h-3.86Zm59.41,23.01c-2.16,3.16-4.89,5.89-8.05,8.05l2.72,2.72c1.45,1.45,3.81,1.45,5.26,0l2.79-2.79c1.45-1.45,1.45-3.81,0-5.26l-2.72-2.72Zm8.66-23.01h-3.86c.34,1.85,.55,3.75,.55,5.69s-.2,3.85-.55,5.69h3.86c2.04,0,3.72-1.67,3.72-3.72v-3.95c0-2.05-1.67-3.72-3.72-3.72ZM26.46,55.08l-2.72,2.72c-1.45,1.45-1.45,3.81,0,5.26l2.79,2.79c1.45,1.45,3.81,1.45,5.26,0l2.72-2.72c-3.15-2.16-5.89-4.89-8.05-8.05Zm19.68,12.86v3.86c0,2.04,1.67,3.72,3.72,3.72h3.95c2.04,0,3.72-1.67,3.72-3.72v-3.86c-1.85,.35-3.75,.55-5.69,.55s-3.84-.2-5.69-.55Z" style="fill: #ffda24;"/>
        <path d="M46.14,5.97v1.6c1.85-.35,3.75-.55,5.69-.55s3.85,.2,5.69,.55v-1.6c-1.85-.33-3.75-.53-5.69-.53s-3.84,.2-5.69,.53Zm31.07,14.46l1.13-1.13c-2.19-3.14-4.91-5.86-8.05-8.05l-1.14,1.13c3.16,2.16,5.89,4.89,8.05,8.05Zm-57.16,11.63c-.33,1.85-.53,3.75-.53,5.69s.2,3.84,.53,5.69h1.6c-.35-1.85-.55-3.75-.55-5.69s.2-3.85,.55-5.69h-1.6Zm49.11,31.07l1.14,1.13c3.13-2.19,5.86-4.91,8.05-8.05l-1.13-1.13c-2.16,3.16-4.89,5.89-8.05,8.05Zm14.46-31.07h-1.6c.34,1.85,.55,3.75,.55,5.69s-.2,3.85-.55,5.69h1.6c.33-1.85,.53-3.75,.53-5.69s-.2-3.84-.53-5.69Zm-37.48,35.87v1.6c1.85,.33,3.75,.53,5.69,.53s3.84-.2,5.69-.53v-1.6c-1.85,.35-3.75,.55-5.69,.55s-3.84-.2-5.69-.55Zm-19.68-12.86l-1.13,1.13c2.19,3.14,4.92,5.87,8.05,8.05l1.13-1.13c-3.15-2.16-5.89-4.89-8.05-8.05Zm-1.13-35.78l1.14,1.13c2.16-3.16,4.89-5.89,8.05-8.05l-1.13-1.13c-3.13,2.19-5.86,4.92-8.05,8.05Z" style="fill: #ffa300;"/>
        <path d="M71.88,9.66l-2.72,2.72c-3.44-2.36-7.38-4.01-11.63-4.81V3.72c0-2.04-1.67-3.72-3.72-3.72h-3.95c-2.05,0-3.72,1.67-3.72,3.72v3.86c-4.25,.8-8.19,2.45-11.63,4.81l-2.72-2.72c-1.45-1.45-3.81-1.45-5.26,0l-2.79,2.79c-1.45,1.45-1.45,3.81,0,5.26l2.72,2.72c-2.36,3.44-4.01,7.38-4.81,11.63h-3.86c-2.04,0-3.72,1.67-3.72,3.72v3.95c0,2.04,1.68,3.72,3.72,3.72h3.86c.8,4.25,2.46,8.19,4.81,11.63l-2.72,2.72c-1.45,1.45-1.45,3.81,0,5.26l1.61,1.62L78.75,11.28l-1.61-1.61c-1.45-1.44-3.81-1.44-5.26,0Z" style="fill: #fff; opacity: .15;"/>
      </g>
      <g>
        <path d="M48.1,20.8c-10.14,0-18.73,6.62-21.72,15.77-5.71,1.27-10.36,5.3-12.49,10.62-7.71,.26-13.89,6.58-13.89,14.35s6.16,14.07,13.85,14.36v.03H48.37V20.82c-.09,0-.18-.01-.27-.01Z" style="fill: #fff;"/>
        <path d="M70.76,40.85c-1.37-11.2-10.84-19.9-22.39-20.03v55.12h21.76v-.04c9.35-.41,16.81-8.09,16.81-17.54s-7.12-16.79-16.17-17.51Z" style="fill: #f2f4f9;"/>
      </g>
    </g>
  </g>
</svg>