<?xml version="1.0" encoding="UTF-8"?>
<svg id="Layer_2" data-name="Layer 2" xmlns="http://www.w3.org/2000/svg" viewBox="0 0 88.65 74.94">
  <g id="Weather_Icons" data-name="Weather Icons">
    <g>
      <g>
        <path d="M88.65,36.67c0,20.25-16.42,36.67-36.67,36.67S15.31,56.93,15.31,36.67,31.73,0,51.98,0s36.67,16.42,36.67,36.67Z" style="fill: #c6c5a3;"/>
        <path d="M51.98,0c-7.25,0-14,2.11-19.69,5.74-3.63,5.69-5.74,12.44-5.74,19.69,0,20.25,16.42,36.67,36.67,36.67,7.25,0,14-2.11,19.69-5.74,3.63-5.69,5.74-12.44,5.74-19.69C88.65,16.42,72.23,0,51.98,0Z" style="fill: #d1d1b0;"/>
        <g>
          <path d="M35.2,32.15c0,3.8-3.08,6.87-6.87,6.87s-6.88-3.08-6.88-6.87,3.08-6.87,6.88-6.87,6.87,3.08,6.87,6.87Z" style="fill: #b7b284;"/>
          <path d="M28.33,25.28c-1.36,0-2.62,.4-3.69,1.08-.68,1.07-1.08,2.33-1.08,3.69,0,3.8,3.08,6.87,6.88,6.87,1.36,0,2.62-.39,3.69-1.08,.68-1.07,1.08-2.33,1.08-3.69,0-3.8-3.08-6.87-6.87-6.87Z" style="fill: #c1be99;"/>
        </g>
        <g>
          <path d="M63.29,35.11c0,5.32-4.32,9.63-9.64,9.63s-9.63-4.31-9.63-9.63,4.31-9.64,9.63-9.64,9.64,4.31,9.64,9.64Z" style="fill: #b7b284;"/>
          <path d="M53.65,25.47c-1.91,0-3.68,.56-5.17,1.51-.95,1.49-1.51,3.27-1.51,5.17,0,5.32,4.31,9.63,9.63,9.63,1.91,0,3.68-.55,5.17-1.51,.95-1.5,1.51-3.27,1.51-5.17,0-5.32-4.32-9.64-9.64-9.64Z" style="fill: #c1be99;"/>
        </g>
        <g>
          <path d="M40.73,55.7c0,2.22-1.8,4.03-4.03,4.03s-4.03-1.8-4.03-4.03,1.8-4.03,4.03-4.03,4.03,1.8,4.03,4.03Z" style="fill: #b7b284;"/>
          <path d="M36.71,51.67c-.8,0-1.54,.23-2.16,.63-.4,.62-.63,1.37-.63,2.16,0,2.23,1.8,4.03,4.03,4.03,.79,0,1.54-.23,2.16-.63,.4-.63,.63-1.37,.63-2.16,0-2.22-1.8-4.03-4.03-4.03Z" style="fill: #c1be99;"/>
        </g>
        <g>
          <path d="M74.12,15.51c0,2.73-2.21,4.94-4.94,4.94s-4.94-2.21-4.94-4.94,2.21-4.94,4.94-4.94,4.94,2.21,4.94,4.94Z" style="fill: #b7b284;"/>
          <path d="M69.19,10.58c-.98,0-1.89,.28-2.65,.77-.49,.76-.77,1.67-.77,2.65,0,2.72,2.21,4.93,4.94,4.93,.98,0,1.88-.28,2.65-.77,.49-.77,.77-1.67,.77-2.65,0-2.73-2.21-4.94-4.94-4.94Z" style="fill: #c1be99;"/>
        </g>
        <g>
          <path d="M44.58,9.84c0,1.55-1.26,2.81-2.81,2.81s-2.81-1.26-2.81-2.81,1.26-2.81,2.81-2.81,2.81,1.26,2.81,2.81Z" style="fill: #b7b284;"/>
          <path d="M41.77,7.03c-.56,0-1.07,.16-1.51,.44-.28,.44-.44,.95-.44,1.51,0,1.55,1.26,2.81,2.81,2.81,.56,0,1.08-.16,1.51-.44,.28-.44,.44-.95,.44-1.51,0-1.55-1.26-2.81-2.81-2.81Z" style="fill: #c1be99;"/>
        </g>
        <g>
          <path d="M83.82,40.44c0,2.83-2.3,5.13-5.13,5.13s-5.13-2.3-5.13-5.13,2.29-5.13,5.13-5.13,5.13,2.3,5.13,5.13Z" style="fill: #b7b284;"/>
          <path d="M78.69,35.31c-1.02,0-1.96,.29-2.76,.81-.51,.79-.8,1.73-.8,2.75,0,2.83,2.29,5.13,5.13,5.13,1.01,0,1.96-.29,2.75-.8,.51-.8,.8-1.74,.8-2.76,0-2.83-2.3-5.13-5.13-5.13Z" style="fill: #c1be99;"/>
        </g>
        <g>
          <path d="M67.4,61.48c0,2.44-1.98,4.42-4.42,4.42s-4.42-1.98-4.42-4.42,1.98-4.42,4.42-4.42,4.42,1.98,4.42,4.42Z" style="fill: #b7b284;"/>
          <path d="M62.98,57.06c-.87,0-1.69,.26-2.37,.69-.44,.69-.69,1.5-.69,2.37,0,2.44,1.98,4.42,4.42,4.42,.87,0,1.69-.25,2.37-.69,.44-.69,.69-1.5,.69-2.37,0-2.44-1.98-4.42-4.42-4.42Z" style="fill: #c1be99;"/>
        </g>
      </g>
      <g>
        <path d="M48.1,19.82c-10.14,0-18.73,6.62-21.72,15.77-5.71,1.27-10.35,5.3-12.49,10.62-7.71,.26-13.89,6.58-13.89,14.35s6.16,14.07,13.85,14.36v.03H48.37V19.83c-.09,0-.17-.01-.27-.01Z" style="fill: #fff;"/>
        <path d="M70.76,39.86c-1.38-11.2-10.85-19.9-22.4-20.03v55.12h21.76v-.04c9.35-.41,16.81-8.09,16.81-17.54s-7.12-16.79-16.17-17.51Z" style="fill: #f2f4f9;"/>
      </g>
    </g>
  </g>
</svg>