<?xml version="1.0" encoding="UTF-8"?>
<svg id="Layer_2" data-name="Layer 2" xmlns="http://www.w3.org/2000/svg" viewBox="0 0 108.62 63.65">
  <g id="Weather_Icons" data-name="Weather Icons">
    <g>
      <path d="M91.75,20.91C90.31,9.22,80.43,.15,68.39,.01c-.09,0-.18-.01-.28-.01-10.59,0-19.55,6.9-22.66,16.45-5.95,1.32-10.8,5.53-13.03,11.08-8.05,.27-14.49,6.86-14.49,14.98s6.42,14.68,14.45,14.98v.03h58.71v-.04c9.75-.42,17.53-8.44,17.53-18.3s-7.43-17.51-16.87-18.26Z" style="fill: #3b3b4c;"/>
      <g>
        <path d="M50.18,6.14c-10.59,0-19.55,6.9-22.66,16.45-5.95,1.32-10.8,5.53-13.03,11.08-8.05,.27-14.49,6.86-14.49,14.98s6.42,14.68,14.45,14.98v.03H50.46V6.15c-.09,0-.18-.01-.28-.01Z" style="fill: #fff;"/>
        <path d="M73.82,27.05c-1.43-11.69-11.32-20.76-23.36-20.9V63.65h22.7v-.04c9.75-.42,17.53-8.44,17.53-18.3s-7.43-17.51-16.87-18.26Z" style="fill: #f2f4f9;"/>
      </g>
    </g>
  </g>
</svg>