<?xml version="1.0" encoding="UTF-8"?>
<svg id="Layer_2" data-name="Layer 2" xmlns="http://www.w3.org/2000/svg" viewBox="0 0 104.9 81.94">
  <g id="Weather_Icons" data-name="Weather Icons">
    <g>
      <path d="M88.03,20.91C86.6,9.22,76.71,.15,64.67,.01c-.09,0-.18-.01-.28-.01-10.59,0-19.55,6.9-22.66,16.45-5.95,1.32-10.8,5.53-13.03,11.08-8.05,.27-14.49,6.86-14.49,14.98s6.42,14.68,14.45,14.98v.03h58.71v-.04c9.75-.42,17.53-8.44,17.53-18.3s-7.43-17.51-16.87-18.26Z" style="fill: #3b3b4c;"/>
      <g>
        <g>
          <path d="M50.18,5.31c-10.59,0-19.55,6.9-22.66,16.45-5.95,1.32-10.8,5.53-13.03,11.08-8.05,.27-14.49,6.86-14.49,14.98s6.42,14.68,14.45,14.98v.03H50.46V5.33c-.09,0-.18-.01-.28-.01Z" style="fill: #fff;"/>
          <path d="M73.82,26.22c-1.43-11.69-11.32-20.76-23.36-20.9V62.83h22.7v-.04c9.75-.42,17.53-8.44,17.53-18.3s-7.43-17.51-16.87-18.26Z" style="fill: #f2f4f9;"/>
        </g>
        <g>
          <path d="M30.83,51.33l-14.49,3.89-1.23,.33c-1.44,.47-2.79,1.27-3.94,2.41-3.9,3.9-3.91,10.23,0,14.14l20.61-20.61c-.2-.2-.54-.27-.96-.16Z" style="fill: #00e1ff;"/>
          <path d="M27.72,68.17l.33-1.24,3.89-14.49c.11-.42,.04-.75-.16-.95l-20.61,20.61c3.9,3.9,10.23,3.9,14.13,0,1.14-1.14,1.94-2.49,2.41-3.93Z" style="fill: #00c6f4;"/>
        </g>
        <g>
          <path d="M76.95,54.33l-14.49,3.89-1.23,.33c-1.44,.47-2.79,1.27-3.93,2.41-3.9,3.9-3.9,10.23,0,14.14l20.61-20.61c-.2-.2-.54-.27-.96-.16Z" style="fill: #00e1ff;"/>
          <path d="M73.84,71.17l.33-1.24,3.89-14.49c.11-.42,.04-.76-.16-.96l-20.61,20.61c3.9,3.9,10.23,3.9,14.14,0,1.14-1.14,1.94-2.49,2.41-3.93Z" style="fill: #00c6f4;"/>
        </g>
        <g>
          <path d="M45.83,67.55l-8.79,2.36-.75,.2c-.87,.29-1.69,.77-2.39,1.47-2.37,2.37-2.37,6.21,0,8.58l12.51-12.51c-.12-.12-.33-.16-.58-.1Z" style="fill: #00e1ff;"/>
          <path d="M43.94,77.77l.2-.75,2.36-8.79c.07-.25,.03-.46-.1-.58l-12.51,12.51c2.37,2.37,6.21,2.37,8.58,0,.69-.7,1.18-1.51,1.47-2.39Z" style="fill: #00c6f4;"/>
        </g>
        <path d="M31.95,52.44l-2.79,10.39h13.97l-11.34-11.34c.2,.2,.27,.54,.16,.95Z" style="fill: #122c3d; opacity: .2;"/>
        <path d="M78.07,55.44l-1.87,6.94c2.45-.52,4.71-1.53,6.69-2.91l-4.98-4.99c.2,.2,.27,.54,.16,.96Z" style="fill: #122c3d; opacity: .2;"/>
      </g>
    </g>
  </g>
</svg>