<?xml version="1.0" encoding="UTF-8"?>
<svg id="Layer_2" data-name="Layer 2" xmlns="http://www.w3.org/2000/svg" viewBox="0 0 89.59 94.25">
  <g id="Weather_Icons" data-name="Weather Icons">
    <g>
      <g>
        <path d="M82.57,37.76c0,16.97-13.76,30.73-30.73,30.73s-30.73-13.76-30.73-30.73S34.87,7.03,51.83,7.03s30.73,13.76,30.73,30.73Z" style="fill: #ffda24;"/>
        <path d="M26.53,9.66l-2.79,2.79c-1.45,1.45-1.45,3.81,0,5.26l2.72,2.72c2.16-3.16,4.89-5.89,8.05-8.05l-2.72-2.72c-1.45-1.45-3.81-1.45-5.26,0Zm50.6,0c-1.45-1.44-3.81-1.44-5.26,0l-2.72,2.72c3.16,2.16,5.89,4.89,8.05,8.05l2.72-2.72c1.45-1.45,1.45-3.81,0-5.26l-2.79-2.8ZM53.81,0h-3.95c-2.05,0-3.72,1.67-3.72,3.72v3.86c1.84-.35,3.74-.55,5.69-.55s3.84,.2,5.69,.55V3.72c0-2.04-1.67-3.72-3.72-3.72ZM17.8,32.06c-2.05,0-3.72,1.67-3.72,3.72v3.95c0,2.04,1.68,3.72,3.72,3.72h3.85c-.34-1.85-.55-3.75-.55-5.69s.2-3.85,.55-5.69h-3.85Zm59.41,23.01c-2.16,3.16-4.89,5.89-8.05,8.05l2.72,2.72c1.45,1.45,3.81,1.45,5.26,0l2.79-2.79c1.45-1.45,1.45-3.81,0-5.26l-2.72-2.72Zm8.67-23.01h-3.86c.35,1.85,.55,3.75,.55,5.69s-.2,3.85-.55,5.69h3.86c2.04,0,3.72-1.67,3.72-3.72v-3.95c0-2.05-1.67-3.72-3.72-3.72ZM26.46,55.08l-2.72,2.72c-1.45,1.45-1.45,3.81,0,5.26l2.79,2.79c1.45,1.45,3.81,1.45,5.26,0l2.72-2.72c-3.16-2.16-5.89-4.89-8.05-8.05Zm19.68,12.86v3.86c0,2.04,1.67,3.72,3.72,3.72h3.95c2.04,0,3.72-1.67,3.72-3.72v-3.86c-1.85,.34-3.74,.55-5.69,.55s-3.85-.2-5.69-.55Z" style="fill: #ffda24;"/>
        <path d="M46.14,5.97v1.6c1.84-.35,3.74-.55,5.69-.55s3.84,.2,5.69,.55v-1.6c-1.85-.33-3.74-.53-5.69-.53s-3.84,.2-5.69,.53Zm31.06,14.46l1.13-1.13c-2.19-3.14-4.91-5.86-8.05-8.05l-1.13,1.13c3.16,2.16,5.89,4.89,8.05,8.05Zm-57.16,11.63c-.33,1.85-.53,3.75-.53,5.69s.2,3.84,.53,5.69h1.6c-.34-1.85-.55-3.75-.55-5.69s.2-3.85,.55-5.69h-1.6Zm49.11,31.07l1.13,1.13c3.14-2.19,5.86-4.91,8.05-8.05l-1.13-1.13c-2.16,3.16-4.89,5.89-8.05,8.05Zm14.46-31.07h-1.6c.35,1.85,.55,3.75,.55,5.69s-.2,3.85-.55,5.69h1.6c.33-1.85,.53-3.75,.53-5.69s-.2-3.84-.53-5.69Zm-37.47,35.87v1.6c1.85,.33,3.75,.53,5.69,.53s3.84-.2,5.69-.53v-1.6c-1.85,.34-3.74,.55-5.69,.55s-3.85-.2-5.69-.55Zm-19.68-12.86l-1.13,1.13c2.19,3.14,4.91,5.87,8.05,8.05l1.13-1.13c-3.16-2.16-5.89-4.89-8.05-8.05Zm-1.13-35.78l1.13,1.13c2.16-3.16,4.89-5.89,8.05-8.05l-1.13-1.13c-3.13,2.19-5.86,4.92-8.05,8.05Z" style="fill: #ffa300;"/>
        <path d="M71.88,9.66l-2.72,2.72c-3.44-2.36-7.38-4.01-11.63-4.81V3.72c0-2.04-1.67-3.72-3.72-3.72h-3.95c-2.05,0-3.72,1.67-3.72,3.72v3.86c-4.25,.8-8.19,2.45-11.63,4.81l-2.72-2.72c-1.45-1.45-3.81-1.45-5.26,0l-2.79,2.79c-1.45,1.45-1.45,3.81,0,5.26l2.72,2.72c-2.36,3.44-4.01,7.38-4.81,11.63h-3.85c-2.05,0-3.72,1.67-3.72,3.72v3.95c0,2.04,1.68,3.72,3.72,3.72h3.85c.8,4.25,2.46,8.19,4.81,11.63l-2.72,2.72c-1.45,1.45-1.45,3.81,0,5.26l1.61,1.62L78.75,11.28l-1.62-1.61c-1.45-1.44-3.81-1.44-5.26,0Z" style="fill: #fff; opacity: .15;"/>
      </g>
      <g>
        <g>
          <path d="M48.1,20.8c-10.14,0-18.73,6.62-21.72,15.77-5.71,1.27-10.35,5.3-12.49,10.62-7.71,.26-13.89,6.58-13.89,14.35s6.16,14.07,13.85,14.36v.02H48.37V20.82c-.09,0-.18-.01-.27-.01Z" style="fill: #fff;"/>
          <path d="M70.76,40.85c-1.38-11.2-10.85-19.9-22.4-20.03v55.12h21.76v-.04c9.35-.41,16.81-8.09,16.81-17.54s-7.12-16.79-16.17-17.51Z" style="fill: #f2f4f9;"/>
        </g>
        <g>
          <path d="M29.55,64.91l-13.89,3.73-1.18,.32c-1.38,.45-2.67,1.22-3.77,2.31-3.74,3.74-3.74,9.81,0,13.55l19.76-19.76c-.19-.19-.51-.26-.92-.15Z" style="fill: #00e1ff;"/>
          <path d="M26.57,81.05l.32-1.19,3.73-13.89c.11-.4,.04-.72-.15-.91l-19.76,19.76c3.74,3.74,9.81,3.74,13.55,0,1.09-1.09,1.86-2.39,2.31-3.77Z" style="fill: #00c6f4;"/>
        </g>
        <g>
          <path d="M73.76,67.78l-13.89,3.73-1.18,.32c-1.38,.45-2.68,1.22-3.77,2.31-3.74,3.74-3.74,9.81,0,13.55l19.76-19.76c-.19-.19-.51-.26-.92-.15Z" style="fill: #00e1ff;"/>
          <path d="M70.79,83.93l.32-1.19,3.73-13.88c.11-.4,.04-.73-.15-.92l-19.76,19.76c3.74,3.74,9.81,3.74,13.55,0,1.09-1.09,1.86-2.39,2.31-3.76Z" style="fill: #00c6f4;"/>
        </g>
        <g>
          <path d="M43.93,80.46l-8.43,2.26-.72,.19c-.83,.28-1.62,.74-2.29,1.41-2.27,2.27-2.27,5.95,0,8.22l12-11.99c-.12-.12-.31-.16-.56-.09Z" style="fill: #00e1ff;"/>
          <path d="M42.12,90.26l.19-.72,2.26-8.43c.07-.24,.03-.44-.09-.55l-12,11.99c2.27,2.27,5.95,2.27,8.22,0,.67-.67,1.13-1.45,1.41-2.29Z" style="fill: #00c6f4;"/>
        </g>
        <path d="M30.62,65.97l-2.67,9.96h13.39l-10.87-10.87c.19,.19,.26,.52,.15,.91Z" style="fill: #122c3d; opacity: .2;"/>
        <path d="M74.83,68.85l-1.79,6.65c2.35-.5,4.52-1.46,6.41-2.79l-4.78-4.78c.19,.19,.26,.52,.15,.92Z" style="fill: #122c3d; opacity: .2;"/>
      </g>
    </g>
  </g>
</svg>