<?xml version="1.0" encoding="UTF-8"?>
<svg id="Layer_2" data-name="Layer 2" xmlns="http://www.w3.org/2000/svg" viewBox="0 0 90.69 94.88">
  <g id="Weather_Icons" data-name="Weather Icons">
    <g>
      <g>
        <path d="M50.18,0c-10.59,0-19.55,6.91-22.66,16.45-5.95,1.32-10.8,5.53-13.03,11.08-8.05,.27-14.49,6.86-14.49,14.98s6.42,14.68,14.45,14.98v.03H50.46V.01c-.09,0-.18-.01-.28-.01Z" style="fill: #fff;"/>
        <path d="M73.82,20.91C72.39,9.22,62.5,.15,50.46,.01V57.51h22.7v-.04c9.75-.42,17.53-8.44,17.53-18.3s-7.43-17.51-16.87-18.26Z" style="fill: #f2f4f9;"/>
      </g>
      <g>
        <path d="M30.83,46.01l-14.49,3.89-1.23,.33c-1.44,.47-2.79,1.27-3.94,2.41-3.9,3.9-3.91,10.23,0,14.14l20.61-20.61c-.2-.2-.54-.27-.96-.16Z" style="fill: #00e1ff;"/>
        <path d="M27.72,62.86l.33-1.24,3.89-14.49c.11-.41,.04-.75-.16-.95l-20.61,20.61c3.9,3.9,10.23,3.9,14.13,0,1.14-1.14,1.94-2.49,2.41-3.93Z" style="fill: #00c6f4;"/>
      </g>
      <path d="M31.95,47.13l-2.79,10.39h13.97l-11.34-11.34c.2,.2,.27,.54,.16,.95Z" style="fill: #122c3d; opacity: .2;"/>
      <path d="M78.07,50.13l-1.87,6.94c2.45-.52,4.71-1.52,6.69-2.91l-4.98-4.99c.2,.2,.27,.54,.16,.96Z" style="fill: #122c3d; opacity: .2;"/>
      <g>
        <path d="M76.95,49.01l-14.49,3.89-1.23,.33c-1.44,.47-2.79,1.27-3.93,2.41-3.9,3.9-3.9,10.23,0,14.14l20.61-20.61c-.2-.2-.54-.27-.96-.16Z" style="fill: #00e1ff;"/>
        <path d="M73.84,65.86l.33-1.24,3.89-14.49c.11-.42,.04-.76-.16-.96l-20.61,20.61c3.9,3.9,10.23,3.9,14.14,0,1.14-1.14,1.94-2.49,2.41-3.93Z" style="fill: #00c6f4;"/>
      </g>
      <polygon points="53.28 57.51 36.86 57.51 29.63 75.64 41.23 75.64 34.14 94.88 57.12 69.04 45.59 69.04 53.28 57.51" style="fill: #ffda24;"/>
      <polygon points="53.28 57.51 36.86 57.51 36.84 57.56 46.68 67.4 53.28 57.51" style="fill: #ffa300;"/>
    </g>
  </g>
</svg>