<?xml version="1.0" encoding="UTF-8"?>
<svg id="Layer_2" data-name="Layer 2" xmlns="http://www.w3.org/2000/svg" viewBox="0 0 86.96 108.81">
  <g id="Weather_Icons" data-name="Weather Icons">
    <g>
      <g>
        <path d="M86.96,36.67c0,20.25-16.42,36.67-36.67,36.67S13.62,56.93,13.62,36.67,30.04,0,50.29,0s36.67,16.42,36.67,36.67Z" style="fill: #c6c5a3;"/>
        <path d="M50.29,0c-7.25,0-14,2.11-19.69,5.74-3.63,5.69-5.74,12.44-5.74,19.69,0,20.25,16.42,36.67,36.67,36.67,7.25,0,14-2.11,19.69-5.74,3.63-5.69,5.74-12.44,5.74-19.69C86.96,16.42,70.54,0,50.29,0Z" style="fill: #d1d1b0;"/>
        <g>
          <path d="M33.51,32.15c0,3.8-3.08,6.87-6.87,6.87s-6.88-3.08-6.88-6.87,3.08-6.88,6.88-6.88,6.87,3.08,6.87,6.88Z" style="fill: #b7b284;"/>
          <path d="M26.64,25.27c-1.36,0-2.62,.4-3.69,1.08-.68,1.07-1.07,2.33-1.07,3.69,0,3.8,3.08,6.87,6.88,6.87,1.36,0,2.62-.39,3.69-1.08,.68-1.07,1.08-2.33,1.08-3.69,0-3.8-3.08-6.88-6.87-6.88Z" style="fill: #c1be99;"/>
        </g>
        <g>
          <path d="M61.6,35.11c0,5.32-4.31,9.63-9.63,9.63s-9.64-4.31-9.64-9.63,4.31-9.64,9.64-9.64,9.63,4.31,9.63,9.64Z" style="fill: #b7b284;"/>
          <path d="M51.96,25.47c-1.91,0-3.68,.56-5.17,1.51-.95,1.49-1.51,3.27-1.51,5.17,0,5.32,4.31,9.63,9.64,9.63,1.9,0,3.68-.55,5.17-1.51,.95-1.5,1.51-3.27,1.51-5.17,0-5.32-4.31-9.64-9.63-9.64Z" style="fill: #c1be99;"/>
        </g>
        <g>
          <path d="M39.04,55.7c0,2.22-1.8,4.03-4.03,4.03s-4.03-1.8-4.03-4.03,1.8-4.03,4.03-4.03,4.03,1.8,4.03,4.03Z" style="fill: #b7b284;"/>
          <path d="M35.02,51.67c-.8,0-1.54,.23-2.16,.63-.4,.62-.63,1.37-.63,2.16,0,2.23,1.8,4.03,4.03,4.03,.79,0,1.53-.23,2.16-.63,.4-.63,.63-1.37,.63-2.16,0-2.22-1.8-4.03-4.03-4.03Z" style="fill: #c1be99;"/>
        </g>
        <g>
          <path d="M72.44,15.51c0,2.73-2.21,4.94-4.94,4.94s-4.94-2.21-4.94-4.94,2.21-4.94,4.94-4.94,4.94,2.21,4.94,4.94Z" style="fill: #b7b284;"/>
          <path d="M67.5,10.58c-.98,0-1.89,.28-2.65,.77-.49,.76-.77,1.67-.77,2.65,0,2.72,2.21,4.93,4.94,4.93,.98,0,1.88-.28,2.65-.77,.49-.77,.77-1.67,.77-2.65,0-2.73-2.21-4.94-4.94-4.94Z" style="fill: #c1be99;"/>
        </g>
        <g>
          <path d="M42.9,9.84c0,1.55-1.26,2.81-2.81,2.81s-2.81-1.26-2.81-2.81,1.26-2.81,2.81-2.81,2.81,1.26,2.81,2.81Z" style="fill: #b7b284;"/>
          <path d="M40.08,7.03c-.56,0-1.07,.16-1.51,.44-.28,.44-.44,.95-.44,1.51,0,1.55,1.26,2.81,2.81,2.81,.56,0,1.07-.16,1.51-.44,.28-.44,.44-.95,.44-1.51,0-1.55-1.26-2.81-2.81-2.81Z" style="fill: #c1be99;"/>
        </g>
        <g>
          <path d="M82.13,40.44c0,2.83-2.3,5.13-5.13,5.13s-5.13-2.3-5.13-5.13,2.29-5.13,5.13-5.13,5.13,2.3,5.13,5.13Z" style="fill: #b7b284;"/>
          <path d="M77,35.31c-1.02,0-1.96,.29-2.76,.81-.51,.79-.8,1.73-.8,2.75,0,2.83,2.3,5.13,5.13,5.13,1.01,0,1.96-.29,2.75-.8,.51-.8,.8-1.74,.8-2.76,0-2.83-2.3-5.13-5.13-5.13Z" style="fill: #c1be99;"/>
        </g>
        <g>
          <path d="M65.72,61.48c0,2.44-1.98,4.42-4.42,4.42s-4.42-1.98-4.42-4.42,1.98-4.42,4.42-4.42,4.42,1.98,4.42,4.42Z" style="fill: #b7b284;"/>
          <path d="M61.29,57.06c-.87,0-1.69,.26-2.37,.69-.44,.69-.69,1.5-.69,2.37,0,2.44,1.98,4.42,4.42,4.42,.87,0,1.69-.25,2.37-.69,.44-.69,.69-1.5,.69-2.37,0-2.44-1.98-4.42-4.42-4.42Z" style="fill: #c1be99;"/>
        </g>
      </g>
      <g>
        <g>
          <path d="M47.31,19.35c-9.98,0-18.43,6.51-21.36,15.51-5.61,1.25-10.19,5.21-12.29,10.45-7.59,.26-13.66,6.47-13.66,14.12s6.05,13.84,13.62,14.12v.02H47.57V19.37c-.09,0-.17-.01-.26-.01Z" style="fill: #fff;"/>
          <path d="M69.6,39.07c-1.35-11.02-10.67-19.57-22.03-19.7v54.21h21.4v-.04c9.19-.4,16.53-7.96,16.53-17.25s-7.01-16.51-15.9-17.22Z" style="fill: #f2f4f9;"/>
        </g>
        <g>
          <path d="M29.07,62.74l-13.66,3.67-1.16,.31c-1.36,.44-2.63,1.2-3.71,2.28-3.68,3.68-3.68,9.65,0,13.33l19.44-19.43c-.19-.19-.51-.26-.9-.15Z" style="fill: #00e1ff;"/>
          <path d="M26.14,78.62l.31-1.17,3.67-13.66c.1-.39,.04-.71-.15-.9l-19.44,19.43c3.68,3.68,9.65,3.68,13.33,0,1.07-1.08,1.83-2.35,2.28-3.7Z" style="fill: #00c6f4;"/>
        </g>
        <path d="M30.12,63.79l-2.63,9.79h13.17l-10.69-10.69c.19,.19,.25,.51,.15,.9Z" style="fill: #122c3d; opacity: .2;"/>
        <path d="M73.61,66.62l-1.76,6.55c2.31-.49,4.45-1.44,6.31-2.75l-4.7-4.7c.19,.19,.26,.51,.15,.9Z" style="fill: #122c3d; opacity: .2;"/>
        <g>
          <path d="M72.55,65.56l-13.66,3.67-1.16,.31c-1.36,.45-2.63,1.2-3.71,2.28-3.68,3.68-3.68,9.65,0,13.33l19.44-19.43c-.19-.19-.5-.26-.9-.15Z" style="fill: #00e1ff;"/>
          <path d="M69.62,81.45l.31-1.17,3.67-13.66c.11-.4,.04-.71-.15-.9l-19.44,19.43c3.68,3.68,9.65,3.68,13.33,0,1.08-1.08,1.83-2.35,2.28-3.7Z" style="fill: #00c6f4;"/>
        </g>
        <polygon points="50.23 73.58 34.75 73.58 27.94 90.67 38.88 90.67 32.19 108.81 53.85 84.44 42.99 84.44 50.23 73.58" style="fill: #ffda24;"/>
        <polygon points="50.23 73.58 34.75 73.58 34.74 73.62 44.02 82.9 50.23 73.58" style="fill: #ffa300;"/>
      </g>
    </g>
  </g>
</svg>