<?xml version="1.0" encoding="UTF-8"?>
<svg id="Layer_2" data-name="Layer 2" xmlns="http://www.w3.org/2000/svg" viewBox="0 0 90.69 82">
  <g id="Weather_Icons" data-name="Weather Icons">
    <g>
      <path d="M50.18,0c-10.59,0-19.55,6.91-22.66,16.45-5.95,1.32-10.8,5.53-13.03,11.08-8.05,.27-14.49,6.86-14.49,14.98s6.42,14.68,14.45,14.98v.03H50.46V.01c-.09,0-.18-.01-.28-.01Z" style="fill: #fff;"/>
      <path d="M73.82,20.91C72.39,9.22,62.5,.15,50.46,.01V57.51h22.7v-.04c9.75-.42,17.53-8.44,17.53-18.3s-7.43-17.51-16.87-18.26Z" style="fill: #f2f4f9;"/>
      <path d="M49.69,77.5l-1.78-1.03,1.54-.41c.08-.02,.13-.11,.11-.19l-.25-.93c-.02-.08-.11-.13-.19-.11l-2.78,.74-2.27-1.31,2.27-1.31,2.78,.74c.08,.02,.17-.03,.19-.11l.25-.93c.02-.08-.03-.17-.11-.19l-1.54-.41,1.78-1.03c.08-.04,.1-.14,.06-.21l-.48-.83c-.04-.07-.14-.1-.21-.06l-1.78,1.02,.42-1.54c.02-.08-.03-.17-.11-.19l-.93-.25c-.08-.02-.17,.03-.19,.11l-.75,2.78-2.27,1.31v-2.5l2.03-2.03c.06-.06,.06-.16,0-.22l-.68-.68c-.06-.06-.16-.06-.22,0l-1.13,1.13v-2.17c0-.09-.07-.16-.16-.16h-.96c-.09,0-.16,.07-.16,.16v2.17l-1.13-1.13c-.06-.06-.16-.06-.22,0l-.68,.68c-.06,.06-.06,.16,0,.22l2.03,2.03v2.5l-2.16-1.25-.75-2.78c-.02-.08-.11-.13-.19-.11l-.93,.25c-.08,.02-.13,.11-.11,.19l.42,1.55-1.88-1.08c-.07-.04-.17-.02-.21,.06l-.48,.83c-.04,.07-.02,.17,.06,.21l1.88,1.09-1.55,.41c-.08,.02-.13,.11-.11,.19l.25,.93c.02,.08,.11,.13,.19,.11l2.78-.75,2.16,1.25-2.16,1.25-2.78-.75c-.08-.02-.17,.03-.19,.11l-.25,.93c-.02,.08,.03,.17,.11,.19l1.55,.41-1.88,1.09c-.07,.04-.1,.14-.06,.21l.48,.83c.04,.08,.14,.1,.21,.06l1.88-1.08-.42,1.54c-.02,.08,.03,.17,.11,.19l.93,.25c.09,.02,.17-.03,.19-.11l.75-2.78,2.16-1.25v2.62l-2.03,2.03c-.06,.06-.06,.16,0,.22l.68,.68c.06,.06,.16,.06,.22,0l1.13-1.13v2.05c0,.08,.07,.16,.16,.16h.96c.09,0,.16-.07,.16-.16v-2.05l1.13,1.13c.06,.06,.16,.06,.22,0l.68-.68c.06-.06,.06-.16,0-.22l-2.03-2.03v-2.62l2.27,1.31,.75,2.78c.02,.08,.11,.13,.19,.11l.93-.25c.08-.02,.13-.11,.11-.19l-.42-1.54,1.78,1.02c.07,.04,.17,.02,.21-.06l.48-.83c.04-.07,.02-.17-.06-.21Z" style="fill: #00e1ff;"/>
      <g>
        <path d="M33.85,65.22l-3.49-2.01,3.03-.81c.16-.04,.26-.21,.22-.38l-.49-1.83c-.04-.16-.21-.26-.37-.22l-5.45,1.46-4.45-2.57,4.45-2.57,5.45,1.46c.16,.04,.33-.05,.37-.22l.49-1.83c.04-.16-.05-.33-.22-.38l-3.03-.81,3.49-2.01c.15-.08,.2-.27,.11-.42l-.95-1.64c-.08-.15-.27-.2-.42-.11l-3.49,2.01,.81-3.03c.04-.16-.05-.33-.22-.38l-1.83-.49c-.16-.05-.33,.05-.38,.22l-1.46,5.46-4.45,2.57v-4.9l3.99-3.99c.12-.12,.12-.31,0-.43l-1.34-1.34c-.12-.12-.32-.12-.43,0l-2.22,2.22v-4.26c0-.17-.14-.31-.31-.31h-1.89c-.17,0-.31,.14-.31,.31v4.26l-2.22-2.22c-.12-.12-.31-.12-.43,0l-1.34,1.34c-.12,.12-.12,.31,0,.43l3.99,3.99v4.9l-4.25-2.45-1.46-5.45c-.04-.16-.21-.26-.38-.22l-1.83,.49c-.16,.04-.26,.21-.22,.37l.81,3.03-3.69-2.13c-.15-.08-.34-.04-.42,.11l-.95,1.64c-.08,.15-.03,.33,.11,.42l3.69,2.13-3.03,.81c-.16,.04-.26,.21-.22,.38l.49,1.83c.04,.16,.21,.26,.37,.22l5.46-1.46,4.25,2.45-4.25,2.45-5.46-1.46c-.16-.04-.33,.05-.37,.22l-.49,1.83c-.04,.16,.05,.33,.22,.37l3.04,.81-3.69,2.13c-.15,.08-.2,.27-.11,.42l.95,1.64c.08,.15,.27,.2,.42,.11l3.69-2.13-.81,3.03c-.04,.16,.05,.33,.22,.38l1.83,.49c.16,.04,.33-.05,.38-.22l1.46-5.45,4.25-2.45v5.14l-3.99,3.99c-.12,.12-.12,.31,0,.43l1.34,1.34c.12,.12,.31,.12,.43,0l2.22-2.22v4.03c0,.17,.14,.31,.31,.31h1.89c.17,0,.31-.14,.31-.31v-4.03l2.22,2.22c.12,.12,.31,.12,.43,0l1.34-1.34c.12-.12,.12-.31,0-.43l-3.99-3.99v-5.14l4.45,2.57,1.46,5.45c.04,.16,.21,.26,.38,.22l1.83-.49c.16-.04,.26-.21,.22-.38l-.81-3.03,3.49,2.01c.15,.08,.33,.03,.42-.11l.95-1.64c.08-.15,.03-.33-.11-.42Z" style="fill: #00e1ff;"/>
        <path d="M27.36,49.19l-1.72-1.72-.03-.02c.06,.11,.06,.25-.04,.34l-3.99,3.99v4.9l4.45-2.57,1.32-4.94Zm-16.05,7.83c1.01,.26,2.06,.42,3.14,.46v.03h1.04l-1.9-1.1-2.28,.61Zm3.53-2.78l4.25,2.45v-2.16l-5.69-5.69,1.45,5.4Zm6.75-5.99l2.15-2.15-2.18-2.18s.03,.05,.03,.08v4.26Zm18.48,9.26l-7.06-7.06,.95,1.64c.08,.15,.03,.33-.11,.42l-3.49,2.01,3.03,.81c.16,.05,.26,.21,.22,.38l-.48,1.8h6.94Zm-8.39-6.64l-1.81-1.81h-.01c.06,.08,.09,.17,.07,.27l-.81,3.03,2.57-1.48Zm-6.49,6.64h6.63l-4.53-1.21-2.1,1.21Z" style="fill: #122c3d; opacity: .2;"/>
      </g>
      <path d="M80.37,65.22l-3.49-2.01,3.03-.81c.16-.04,.26-.21,.22-.38l-.49-1.83c-.04-.16-.21-.26-.37-.22l-5.45,1.46-4.45-2.57,4.45-2.57,5.45,1.46c.16,.04,.33-.05,.37-.22l.49-1.83c.04-.16-.05-.33-.22-.38l-3.03-.81,3.49-2.01c.15-.08,.2-.27,.11-.42l-.95-1.64c-.08-.15-.27-.2-.42-.11l-3.49,2.01,.81-3.03c.04-.16-.05-.33-.22-.38l-1.83-.49c-.16-.05-.33,.05-.38,.22l-1.46,5.46-4.45,2.57v-4.9l3.99-3.99c.12-.12,.12-.31,0-.43l-1.34-1.34c-.12-.12-.32-.12-.43,0l-2.22,2.22v-4.26c0-.17-.14-.31-.31-.31h-1.89c-.17,0-.31,.14-.31,.31v4.26l-2.22-2.22c-.12-.12-.31-.12-.43,0l-1.34,1.34c-.12,.12-.12,.31,0,.43l3.99,3.99v4.9l-4.25-2.45-1.46-5.45c-.04-.16-.21-.26-.38-.22l-1.83,.49c-.16,.04-.26,.21-.22,.37l.81,3.03-3.69-2.13c-.15-.08-.34-.04-.42,.11l-.95,1.64c-.08,.15-.03,.33,.11,.42l3.69,2.13-3.03,.81c-.16,.04-.26,.21-.22,.38l.49,1.83c.04,.16,.21,.26,.37,.22l5.46-1.46,4.25,2.45-4.25,2.45-5.46-1.46c-.16-.04-.33,.05-.37,.22l-.49,1.83c-.04,.16,.05,.33,.22,.37l3.04,.81-3.69,2.13c-.15,.08-.2,.27-.11,.42l.95,1.64c.08,.15,.27,.2,.42,.11l3.69-2.13-.81,3.03c-.04,.16,.05,.33,.22,.38l1.83,.49c.16,.04,.33-.05,.38-.22l1.46-5.45,4.25-2.45v5.14l-3.99,3.99c-.12,.12-.12,.31,0,.43l1.34,1.34c.12,.12,.31,.12,.43,0l2.22-2.22v4.03c0,.17,.14,.31,.31,.31h1.89c.17,0,.31-.14,.31-.31v-4.03l2.22,2.22c.12,.12,.31,.12,.43,0l1.34-1.34c.12-.12,.12-.31,0-.43l-3.99-3.99v-5.14l4.45,2.57,1.46,5.45c.04,.16,.21,.26,.38,.22l1.83-.49c.16-.04,.26-.21,.22-.38l-.81-3.03,3.49,2.01c.15,.08,.33,.03,.42-.11l.95-1.64c.08-.15,.03-.33-.11-.42Z" style="fill: #00e1ff;"/>
      <path d="M71.72,57.51h1.44v-.04c.57-.03,1.14-.08,1.69-.16,.54-.08,1.07-.18,1.6-.29,.01,0,.02,0,.03,0l-2.66-.71-2.1,1.21Zm6.49-6.64l-1.81-1.81h-.01c.06,.08,.09,.17,.07,.27l-.81,3.03,2.57-1.48Zm-4.32-1.68l-1.72-1.72-.03-.02c.03,.06,.04,.11,.04,.17,0,.06-.02,.12-.07,.17l-3.99,3.99v4.9l4.45-2.57,1.32-4.94Zm-17.87,8.32h5.99l-1.9-1.1-4.09,1.1Zm23.52-7.06l.95,1.64c.08,.15,.03,.33-.11,.42l-3.49,2.01,3.03,.81c.16,.05,.26,.21,.22,.38v.04c.51-.25,1.02-.51,1.52-.81,0,0,0,0,0,0,.49-.29,.97-.6,1.43-.94l-3.55-3.55Zm-11.42-2.2l2.15-2.15-2.18-2.18s.03,.05,.03,.08v4.26Zm-6.75,5.99l4.25,2.45v-2.16l-5.69-5.69,1.45,5.4Z" style="fill: #122c3d; opacity: .2;"/>
    </g>
  </g>
</svg>