<?xml version="1.0" encoding="UTF-8"?>
<svg id="Layer_2" data-name="Layer 2" xmlns="http://www.w3.org/2000/svg" viewBox="0 0 90.69 72.67">
  <g id="Weather_Icons" data-name="Weather Icons">
    <g>
      <path d="M50.18,0c-10.59,0-19.55,6.91-22.66,16.45-5.95,1.32-10.81,5.53-13.03,11.08-8.05,.27-14.49,6.87-14.49,14.98s6.42,14.68,14.45,14.98v.03H50.46V.01c-.09,0-.18-.01-.28-.01Z" style="fill: #fff;"/>
      <path d="M73.82,20.91C72.39,9.22,62.5,.15,50.46,.01V57.51h22.7v-.04c9.76-.42,17.54-8.44,17.54-18.3s-7.43-17.51-16.87-18.26Z" style="fill: #f2f4f9;"/>
      <g>
        <path d="M9.14,43.18H42.4c.57,0,1.03,.46,1.03,1.03v2.23c0,.57-.46,1.03-1.03,1.03H9.14c-.57,0-1.03-.46-1.03-1.03v-2.24c0-.57,.46-1.03,1.03-1.03Z" style="fill: #00e1ff;"/>
        <path d="M12.61,69.4c0-.57,.47-1.03,1.03-1.03H46.9c.57,0,1.03,.47,1.03,1.03v2.23c0,.57-.46,1.04-1.03,1.04H13.64c-.57,0-1.03-.47-1.03-1.04v-2.23Z" style="fill: #00e1ff;"/>
        <path d="M46,55.52h21.83c.57,0,1.03,.46,1.03,1.03v2.23c0,.57-.46,1.03-1.03,1.03h-21.83c-.57,0-1.03-.46-1.03-1.03v-2.23c0-.57,.46-1.03,1.03-1.03Z" style="fill: #00e1ff;"/>
        <path d="M57.2,68.38h21.83c.57,0,1.03,.46,1.03,1.03v2.23c0,.57-.46,1.03-1.03,1.03h-21.83c-.57,0-1.03-.46-1.03-1.03v-2.24c0-.57,.46-1.03,1.03-1.03Z" style="fill: #00e1ff;"/>
        <rect x="19.29" y="55.52" width="15.15" height="4.29" rx=".99" ry=".99" style="fill: #00e1ff;"/>
        <rect x="68.96" y="43.19" width="15.15" height="4.29" rx=".99" ry=".99" style="fill: #00e1ff;"/>
        <path d="M53.32,43.19h3.73c.55,0,.99,.45,.99,.99v2.31c0,.55-.45,.99-.99,.99h-3.73c-.55,0-.99-.45-.99-.99v-2.31c0-.55,.45-.99,.99-.99Z" style="fill: #00e1ff;"/>
      </g>
      <path d="M58.04,44.18v2.31c0,.55-.45,.99-.99,.99h-3.72c-.27,0-.52-.11-.7-.29l8.33,8.33h6.89c.57,0,1.03,.46,1.03,1.03v.96h2.86l-13.87-13.87c.1,.16,.18,.34,.18,.54Zm-14.6,.04v2.23c0,.57-.46,1.03-1.03,1.03H9.14c-.27,0-.52-.11-.7-.29h-.01s10.31,10.32,10.31,10.32h.56v-1c0-.55,.45-.99,.99-.99h13.16c.54,0,.99,.45,.99,.99v1h10.53v-.96c0-.57,.46-1.03,1.03-1.03h9.11l-11.88-11.88c.12,.17,.2,.36,.2,.57Zm9.15,2.92h0s.04,.05,.04,.05c-.01-.01-.02-.03-.03-.05Zm31.38-3.5h-.03c.1,.16,.18,.34,.18,.54v2.31c0,.55-.45,.99-.99,.99h-13.16c-.23,0-.44-.09-.61-.23v.02s9.15,9.16,9.15,9.16c4.23-1.5,7.73-4.51,9.88-8.37l-4.42-4.42Z" style="fill: #122c3d; opacity: .2;"/>
    </g>
  </g>
</svg>