<?xml version="1.0" encoding="UTF-8"?>
<svg id="Layer_2" data-name="Layer 2" xmlns="http://www.w3.org/2000/svg" viewBox="0 0 90.69 92.71">
  <g id="Weather_Icons" data-name="Weather Icons">
    <g>
      <g>
        <path d="M89.95,36.67c0,20.25-16.42,36.67-36.67,36.67S16.6,56.93,16.6,36.67,33.02,0,53.28,0s36.67,16.42,36.67,36.67Z" style="fill: #c6c5a3;"/>
        <path d="M53.28,0c-7.25,0-14,2.11-19.69,5.74-3.63,5.69-5.74,12.44-5.74,19.69,0,20.25,16.42,36.67,36.67,36.67,7.25,0,14-2.11,19.69-5.74,3.63-5.69,5.74-12.44,5.74-19.69C89.95,16.42,73.53,0,53.28,0Z" style="fill: #d1d1b0;"/>
        <g>
          <path d="M36.5,32.15c0,3.8-3.08,6.87-6.87,6.87s-6.88-3.08-6.88-6.87,3.08-6.87,6.88-6.87,6.87,3.08,6.87,6.87Z" style="fill: #b7b284;"/>
          <path d="M29.62,25.28c-1.36,0-2.62,.4-3.69,1.08-.68,1.07-1.08,2.33-1.08,3.69,0,3.8,3.08,6.87,6.88,6.87,1.36,0,2.62-.39,3.69-1.08,.68-1.07,1.08-2.33,1.08-3.69,0-3.79-3.08-6.87-6.87-6.87Z" style="fill: #c1be99;"/>
        </g>
        <g>
          <path d="M64.58,35.11c0,5.32-4.31,9.63-9.64,9.63s-9.63-4.31-9.63-9.63,4.31-9.64,9.63-9.64,9.64,4.32,9.64,9.64Z" style="fill: #b7b284;"/>
          <path d="M54.95,25.47c-1.91,0-3.68,.56-5.17,1.51-.95,1.49-1.51,3.27-1.51,5.17,0,5.32,4.31,9.63,9.64,9.63,1.91,0,3.68-.55,5.17-1.51,.95-1.5,1.51-3.27,1.51-5.17,0-5.32-4.31-9.64-9.64-9.64Z" style="fill: #c1be99;"/>
        </g>
        <g>
          <path d="M42.03,55.7c0,2.22-1.8,4.03-4.03,4.03s-4.03-1.8-4.03-4.03,1.8-4.03,4.03-4.03,4.03,1.8,4.03,4.03Z" style="fill: #b7b284;"/>
          <path d="M38,51.67c-.8,0-1.54,.23-2.16,.63-.4,.62-.63,1.37-.63,2.16,0,2.22,1.8,4.02,4.03,4.02,.8,0,1.54-.23,2.16-.63,.4-.63,.63-1.37,.63-2.16,0-2.22-1.8-4.03-4.03-4.03Z" style="fill: #c1be99;"/>
        </g>
        <g>
          <path d="M75.42,15.51c0,2.73-2.21,4.94-4.94,4.94s-4.94-2.21-4.94-4.94,2.21-4.94,4.94-4.94,4.94,2.21,4.94,4.94Z" style="fill: #b7b284;"/>
          <path d="M70.48,10.58c-.98,0-1.88,.28-2.65,.77-.49,.76-.77,1.67-.77,2.65,0,2.72,2.21,4.93,4.94,4.93,.98,0,1.88-.28,2.65-.77,.49-.76,.77-1.67,.77-2.65,0-2.72-2.21-4.94-4.94-4.94Z" style="fill: #c1be99;"/>
        </g>
        <g>
          <path d="M45.88,9.84c0,1.55-1.26,2.81-2.81,2.81s-2.81-1.26-2.81-2.81,1.26-2.81,2.81-2.81,2.81,1.26,2.81,2.81Z" style="fill: #b7b284;"/>
          <path d="M43.07,7.03c-.56,0-1.07,.16-1.51,.44-.28,.44-.44,.96-.44,1.51,0,1.55,1.26,2.81,2.81,2.81,.56,0,1.08-.16,1.51-.44,.28-.44,.44-.96,.44-1.51,0-1.55-1.26-2.81-2.81-2.81Z" style="fill: #c1be99;"/>
        </g>
        <g>
          <path d="M85.12,40.44c0,2.83-2.3,5.13-5.13,5.13s-5.13-2.3-5.13-5.13,2.3-5.13,5.13-5.13,5.13,2.3,5.13,5.13Z" style="fill: #b7b284;"/>
          <path d="M79.99,35.31c-1.02,0-1.96,.29-2.76,.81-.51,.79-.8,1.73-.8,2.75,0,2.83,2.3,5.13,5.13,5.13,1.01,0,1.96-.29,2.75-.8,.51-.8,.8-1.74,.8-2.76,0-2.83-2.3-5.13-5.13-5.13Z" style="fill: #c1be99;"/>
        </g>
        <g>
          <path d="M68.7,61.48c0,2.44-1.98,4.42-4.42,4.42s-4.42-1.98-4.42-4.42,1.98-4.42,4.42-4.42,4.42,1.98,4.42,4.42Z" style="fill: #b7b284;"/>
          <path d="M64.28,57.06c-.88,0-1.69,.26-2.37,.69-.44,.69-.69,1.5-.69,2.37,0,2.44,1.98,4.42,4.42,4.42,.87,0,1.69-.25,2.37-.69,.44-.69,.69-1.5,.69-2.37,0-2.44-1.98-4.42-4.42-4.42Z" style="fill: #c1be99;"/>
        </g>
      </g>
      <g>
        <path d="M50.18,20.04c-10.58,0-19.54,6.9-22.66,16.45-5.95,1.32-10.81,5.53-13.03,11.08-8.05,.27-14.49,6.86-14.49,14.98s6.42,14.68,14.45,14.98v.03H50.46V20.06c-.09,0-.18-.01-.28-.01Z" style="fill: #fff;"/>
        <path d="M73.82,40.95c-1.44-11.69-11.32-20.76-23.36-20.9v57.5h22.7v-.04c9.76-.42,17.54-8.44,17.54-18.3s-7.43-17.51-16.87-18.26Z" style="fill: #f2f4f9;"/>
        <g>
          <path d="M9.14,63.23H42.4c.57,0,1.03,.46,1.03,1.03v2.23c0,.57-.46,1.03-1.03,1.03H9.14c-.57,0-1.03-.46-1.03-1.03v-2.24c0-.57,.46-1.03,1.03-1.03Z" style="fill: #00e1ff;"/>
          <path d="M12.61,89.45c0-.57,.47-1.03,1.03-1.03H46.9c.56,0,1.03,.46,1.03,1.03v2.23c0,.57-.46,1.04-1.03,1.04H13.64c-.57,0-1.03-.47-1.03-1.04v-2.23Z" style="fill: #00e1ff;"/>
          <path d="M46,75.56h21.83c.57,0,1.03,.46,1.03,1.03v2.24c0,.57-.46,1.03-1.03,1.03h-21.83c-.57,0-1.03-.46-1.03-1.03v-2.23c0-.57,.46-1.03,1.03-1.03Z" style="fill: #00e1ff;"/>
          <path d="M57.2,88.42h21.83c.57,0,1.03,.46,1.03,1.03v2.23c0,.57-.46,1.03-1.03,1.03h-21.83c-.57,0-1.03-.46-1.03-1.03v-2.23c0-.57,.46-1.03,1.03-1.03Z" style="fill: #00e1ff;"/>
          <path d="M20.28,75.57h13.16c.55,0,.99,.45,.99,.99v2.31c0,.55-.44,.99-.99,.99h-13.16c-.55,0-.99-.45-.99-.99v-2.31c0-.55,.44-.99,.99-.99Z" style="fill: #00e1ff;"/>
          <path d="M69.95,63.23h13.16c.55,0,.99,.45,.99,.99v2.31c0,.55-.45,.99-.99,.99h-13.16c-.55,0-.99-.45-.99-.99v-2.31c0-.55,.45-.99,.99-.99Z" style="fill: #00e1ff;"/>
          <rect x="52.32" y="63.23" width="5.71" height="4.29" rx=".99" ry=".99" style="fill: #00e1ff;"/>
        </g>
        <path d="M58.03,64.22v2.31c0,.55-.45,.99-.99,.99h-3.73c-.27,0-.52-.11-.7-.29l8.33,8.33h6.89c.57,0,1.03,.46,1.03,1.03v.96h2.86l-13.87-13.87c.1,.16,.18,.34,.18,.54Zm-14.6,.04v2.24c0,.57-.46,1.03-1.03,1.03H9.14c-.27,0-.52-.11-.7-.29h-.01s10.31,10.32,10.31,10.32h.56v-1c0-.55,.45-.99,.99-.99h13.16c.55,0,.99,.45,.99,.99v1h10.53v-.96c0-.57,.46-1.03,1.03-1.03h9.11l-11.88-11.88c.11,.17,.2,.36,.2,.57Zm9.15,2.92h0s.04,.05,.04,.05c-.01-.01-.02-.04-.03-.05Zm31.38-3.5h-.03c.1,.16,.18,.34,.18,.54v2.31c0,.55-.45,.99-.99,.99h-13.16c-.23,0-.44-.09-.61-.23v.02s9.15,9.16,9.15,9.16c4.23-1.5,7.73-4.51,9.88-8.37l-4.42-4.42Z" style="fill: #122c3d; opacity: .2;"/>
      </g>
    </g>
  </g>
</svg>